<?xml version="1.0" encoding="iso-8859-1"?>
<!-- Generator: Adobe Illustrator 19.0.0, SVG Export Plug-In . SVG Version: 6.00 Build 0)  -->
<svg version="1.1" id="Capa_1" xmlns="http://www.w3.org/2000/svg" xmlns:xlink="http://www.w3.org/1999/xlink" x="0px" y="0px"
	 viewBox="0 0 512 512" style="enable-background:new 0 0 512 512;" xml:space="preserve">
<g>
	<g>
		<path d="M445.913,130.787c-2.64-33.347-17.014-64.323-41.044-88.049c-26.272-25.94-61.076-40.226-98-40.226
			c-44.591,0-86.079,21.109-112.37,56.819c-7.808-1.686-15.753-2.537-23.702-2.537c-24.766,0-48.251,7.905-67.917,22.86
			c-17.178,13.064-30.395,31.079-37.726,51.259C28.096,136.033,0,167.688,0,205.846c0,41.727,33.944,75.676,75.666,75.676h360.669
			c41.723,0,75.666-33.948,75.666-75.676C512,167.376,483.142,135.519,445.913,130.787z M436.335,261.443H75.666
			c-30.651,0-55.587-24.94-55.587-55.597c0-29.777,23.285-54.164,53.012-55.518c4.283-0.195,7.969-3.088,9.177-7.202
			c11.447-39.009,47.852-66.255,88.531-66.255c8.492,0,16.985,1.187,25.244,3.526c4.206,1.192,8.701-0.476,11.111-4.123
			c22.218-33.615,59.495-53.684,99.716-53.684c64.96,0,118.522,52.829,119.397,117.765c0.073,5.491,4.577,9.904,10.068,9.904
			c30.651,0,55.587,24.936,55.587,55.587C491.923,236.503,466.986,261.443,436.335,261.443z"/>
	</g>
</g>
<g>
	<g>
		<path d="M109.856,356.893l13.843-13.842c3.92-3.92,3.92-10.277,0-14.197c-3.92-3.92-10.275-3.92-14.198,0l-13.843,13.842
			l-13.843-13.842c-3.921-3.92-10.276-3.92-14.198,0c-3.92,3.92-3.92,10.277,0,14.197l13.843,13.842l-13.843,13.842
			c-3.92,3.92-3.92,10.277,0,14.197c1.961,1.961,4.53,2.94,7.099,2.94s5.138-0.981,7.099-2.94l13.843-13.842l13.843,13.842
			c1.962,1.961,4.531,2.94,7.101,2.94c2.57,0,5.138-0.981,7.099-2.94c3.92-3.92,3.92-10.277,0-14.197L109.856,356.893z"/>
	</g>
</g>
<g>
	<g>
		<path d="M53.775,346.853c-12.919,0-12.941,20.078,0,20.078C66.695,366.931,66.716,346.853,53.775,346.853z"/>
	</g>
</g>
<g>
	<g>
		<path d="M95.659,304.97c-12.919,0-12.941,20.078,0,20.078C108.578,325.049,108.599,304.97,95.659,304.97z"/>
	</g>
</g>
<g>
	<g>
		<path d="M94.944,388.022c-12.919,0-12.94,20.078,0,20.078C107.863,408.1,107.884,388.022,94.944,388.022z"/>
	</g>
</g>
<g>
	<g>
		<path d="M136.828,346.139c-12.919,0-12.941,20.078,0,20.078C149.747,366.218,149.768,346.139,136.828,346.139z"/>
	</g>
</g>
<g>
	<g>
		<path d="M270.554,356.892l13.843-13.843c3.92-3.92,3.92-10.277,0-14.197c-3.921-3.92-10.276-3.92-14.198,0l-13.842,13.842
			l-13.842-13.842c-3.919-3.92-10.274-3.92-14.198,0c-3.92,3.92-3.92,10.277,0,14.197l13.843,13.843l-13.843,13.843
			c-3.92,3.92-3.92,10.277,0,14.197c1.961,1.961,4.53,2.94,7.099,2.94s5.138-0.981,7.099-2.94l13.842-13.842l13.842,13.842
			c1.963,1.961,4.531,2.94,7.101,2.94c2.569,0,5.138-0.981,7.099-2.94c3.92-3.92,3.92-10.277,0-14.197L270.554,356.892z"/>
	</g>
</g>
<g>
	<g>
		<path d="M214.474,346.853c-12.919,0-12.941,20.078,0,20.078C227.393,366.931,227.414,346.853,214.474,346.853z"/>
	</g>
</g>
<g>
	<g>
		<path d="M256.357,304.97c-12.919,0-12.941,20.078,0,20.078C269.277,325.049,269.298,304.97,256.357,304.97z"/>
	</g>
</g>
<g>
	<g>
		<path d="M255.643,388.022c-12.919,0-12.941,20.078,0,20.078C268.562,408.1,268.583,388.022,255.643,388.022z"/>
	</g>
</g>
<g>
	<g>
		<path d="M297.526,346.139c-12.919,0-12.941,20.078,0,20.078C310.446,366.218,310.467,346.139,297.526,346.139z"/>
	</g>
</g>
<g>
	<g>
		<path d="M190.559,458.28l13.843-13.843c3.923-3.92,3.923-10.276,0.002-14.197c-3.921-3.92-10.276-3.92-14.198,0l-13.842,13.842
			l-13.842-13.842c-3.92-3.92-10.275-3.92-14.198,0c-3.92,3.92-3.92,10.277,0,14.197l13.843,13.843l-13.843,13.843
			c-3.92,3.92-3.92,10.277,0,14.197c1.961,1.961,4.53,2.94,7.099,2.94s5.138-0.981,7.099-2.94l13.842-13.842l13.842,13.842
			c1.961,1.961,4.53,2.94,7.099,2.94s5.138-0.981,7.099-2.94c3.92-3.92,3.92-10.277,0-14.197L190.559,458.28z"/>
	</g>
</g>
<g>
	<g>
		<path d="M134.481,448.241c-12.919,0-12.941,20.078,0,20.078C147.401,468.319,147.422,448.241,134.481,448.241z"/>
	</g>
</g>
<g>
	<g>
		<path d="M176.365,406.358c-12.919,0-12.941,20.078,0,20.078C189.284,426.437,189.305,406.358,176.365,406.358z"/>
	</g>
</g>
<g>
	<g>
		<path d="M175.651,489.41c-12.92,0-12.942,20.078,0,20.078C188.571,509.488,188.592,489.41,175.651,489.41z"/>
	</g>
</g>
<g>
	<g>
		<path d="M217.534,447.527c-12.919,0-12.942,20.078,0,20.078C230.453,467.606,230.474,447.527,217.534,447.527z"/>
	</g>
</g>
<g>
	<g>
		<path d="M351.259,458.28l13.843-13.842c3.922-3.92,3.922-10.277,0.002-14.197c-3.92-3.92-10.275-3.92-14.198,0l-13.843,13.842
			l-13.843-13.842c-3.921-3.92-10.276-3.92-14.198,0c-3.92,3.92-3.92,10.277,0,14.197l13.843,13.842l-13.843,13.842
			c-3.92,3.92-3.92,10.277,0,14.197c1.961,1.961,4.53,2.94,7.099,2.94s5.138-0.981,7.099-2.94l13.843-13.842l13.843,13.842
			c1.961,1.961,4.53,2.94,7.099,2.94c2.569,0,5.138-0.981,7.099-2.94c3.92-3.92,3.92-10.277,0-14.197L351.259,458.28z"/>
	</g>
</g>
<g>
	<g>
		<path d="M295.18,448.241c-12.919,0-12.941,20.078,0,20.078C308.1,468.319,308.121,448.241,295.18,448.241z"/>
	</g>
</g>
<g>
	<g>
		<path d="M337.064,406.358c-12.919,0-12.941,20.078,0,20.078C349.983,426.437,350.004,406.358,337.064,406.358z"/>
	</g>
</g>
<g>
	<g>
		<path d="M336.349,489.41c-12.918,0-12.941,20.078,0,20.078C349.268,509.488,349.289,489.41,336.349,489.41z"/>
	</g>
</g>
<g>
	<g>
		<path d="M378.232,447.527c-12.919,0-12.942,20.078,0,20.078C391.152,467.606,391.173,447.527,378.232,447.527z"/>
	</g>
</g>
<g>
	<g>
		<path d="M431.251,356.892l13.843-13.842c3.923-3.921,3.923-10.278,0.002-14.197c-3.92-3.92-10.275-3.92-14.198,0l-13.843,13.842
			l-13.843-13.842c-3.921-3.92-10.276-3.92-14.198,0c-3.92,3.92-3.92,10.277,0,14.197l13.843,13.842l-13.843,13.842
			c-3.92,3.92-3.92,10.277,0,14.197c1.961,1.961,4.53,2.94,7.099,2.94s5.138-0.981,7.099-2.94l13.843-13.842l13.843,13.842
			c1.961,1.961,4.53,2.94,7.099,2.94c2.569,0,5.138-0.981,7.099-2.94c3.92-3.92,3.92-10.277,0-14.197L431.251,356.892z"/>
	</g>
</g>
<g>
	<g>
		<path d="M375.173,346.853c-12.919,0-12.941,20.078,0,20.078C388.092,366.931,388.113,346.853,375.173,346.853z"/>
	</g>
</g>
<g>
	<g>
		<path d="M417.056,304.97c-12.919,0-12.941,20.078,0,20.078C429.976,325.049,429.997,304.97,417.056,304.97z"/>
	</g>
</g>
<g>
	<g>
		<path d="M416.341,388.022c-12.919,0-12.941,20.078,0,20.078C429.261,408.1,429.282,388.022,416.341,388.022z"/>
	</g>
</g>
<g>
	<g>
		<path d="M458.225,346.139c-12.919,0-12.942,20.078,0,20.078C471.144,366.218,471.166,346.139,458.225,346.139z"/>
	</g>
</g>
<g>
	<g>
		<path d="M191.08,221.299h-86.003c-5.544,0-10.039,4.495-10.039,10.039s4.496,10.039,10.039,10.039h86.003
			c5.544,0,10.039-4.495,10.039-10.039S196.624,221.299,191.08,221.299z"/>
	</g>
</g>
<g>
	<g>
		<path d="M222.815,221.299c-12.919,0-12.942,20.078,0,20.078C235.735,241.378,235.756,221.299,222.815,221.299z"/>
	</g>
</g>
<g>
</g>
<g>
</g>
<g>
</g>
<g>
</g>
<g>
</g>
<g>
</g>
<g>
</g>
<g>
</g>
<g>
</g>
<g>
</g>
<g>
</g>
<g>
</g>
<g>
</g>
<g>
</g>
<g>
</g>
</svg>
